<mxfile host="app.diagrams.net" modified="2022-06-25T09:49:38.423Z" agent="5.0 (Windows NT 10.0; Win64; x64) AppleWebKit/537.36 (KHTML, like Gecko) Chrome/103.0.0.0 Safari/537.36" etag="I0olegZZtfOvmjzdTtsy" version="18.1.2" type="github">
  <diagram id="I02JasP1v-JOIsKo-7Sf" name="Page-1">
    <mxGraphModel dx="1422" dy="834" grid="1" gridSize="10" guides="1" tooltips="1" connect="1" arrows="1" fold="1" page="1" pageScale="1" pageWidth="827" pageHeight="1169" math="0" shadow="0">
      <root>
        <mxCell id="0" />
        <mxCell id="1" parent="0" />
        <mxCell id="V6yJi1-p0EJxkeEdnUwC-25" value="" style="rounded=0;whiteSpace=wrap;html=1;fillColor=none;" vertex="1" parent="1">
          <mxGeometry width="760" height="560" as="geometry" />
        </mxCell>
        <mxCell id="V6yJi1-p0EJxkeEdnUwC-26" value="&lt;div style=&quot;&quot;&gt;&lt;span style=&quot;background-color: initial;&quot;&gt;Internal&lt;/span&gt;&lt;/div&gt;" style="rounded=0;whiteSpace=wrap;html=1;fillColor=none;align=left;verticalAlign=top;" vertex="1" parent="1">
          <mxGeometry x="40" y="200" width="680" height="320" as="geometry" />
        </mxCell>
        <mxCell id="V6yJi1-p0EJxkeEdnUwC-10" value="" style="edgeStyle=orthogonalEdgeStyle;rounded=0;orthogonalLoop=1;jettySize=auto;html=1;entryX=0.115;entryY=-0.025;entryDx=0;entryDy=0;entryPerimeter=0;endArrow=classic;endFill=1;startArrow=classic;startFill=1;" edge="1" parent="1" source="V6yJi1-p0EJxkeEdnUwC-1" target="V6yJi1-p0EJxkeEdnUwC-5">
          <mxGeometry relative="1" as="geometry" />
        </mxCell>
        <mxCell id="V6yJi1-p0EJxkeEdnUwC-1" value="Service A&lt;br&gt;" style="rounded=0;whiteSpace=wrap;html=1;fillColor=#e1d5e7;strokeColor=#9673a6;" vertex="1" parent="1">
          <mxGeometry x="120" y="240" width="120" height="80" as="geometry" />
        </mxCell>
        <mxCell id="V6yJi1-p0EJxkeEdnUwC-19" style="edgeStyle=orthogonalEdgeStyle;rounded=0;orthogonalLoop=1;jettySize=auto;html=1;entryX=0.885;entryY=-0.012;entryDx=0;entryDy=0;entryPerimeter=0;startArrow=classic;startFill=1;endArrow=classic;endFill=1;" edge="1" parent="1" source="V6yJi1-p0EJxkeEdnUwC-2" target="V6yJi1-p0EJxkeEdnUwC-5">
          <mxGeometry relative="1" as="geometry" />
        </mxCell>
        <mxCell id="V6yJi1-p0EJxkeEdnUwC-2" value="Service C&lt;br&gt;" style="rounded=0;whiteSpace=wrap;html=1;fillColor=#e1d5e7;strokeColor=#9673a6;" vertex="1" parent="1">
          <mxGeometry x="520" y="240" width="120" height="80" as="geometry" />
        </mxCell>
        <mxCell id="V6yJi1-p0EJxkeEdnUwC-17" style="edgeStyle=orthogonalEdgeStyle;rounded=0;orthogonalLoop=1;jettySize=auto;html=1;entryX=0.577;entryY=0;entryDx=0;entryDy=0;entryPerimeter=0;startArrow=classic;startFill=1;endArrow=classic;endFill=1;" edge="1" parent="1" source="V6yJi1-p0EJxkeEdnUwC-3" target="V6yJi1-p0EJxkeEdnUwC-5">
          <mxGeometry relative="1" as="geometry" />
        </mxCell>
        <mxCell id="V6yJi1-p0EJxkeEdnUwC-3" value="Service B&lt;br&gt;" style="rounded=0;whiteSpace=wrap;html=1;fillColor=#e1d5e7;strokeColor=#9673a6;" vertex="1" parent="1">
          <mxGeometry x="360" y="240" width="120" height="80" as="geometry" />
        </mxCell>
        <mxCell id="V6yJi1-p0EJxkeEdnUwC-5" value="Cache&lt;br&gt;" style="rounded=0;whiteSpace=wrap;html=1;fillColor=#d5e8d4;strokeColor=#82b366;align=center;verticalAlign=middle;" vertex="1" parent="1">
          <mxGeometry x="120" y="400" width="520" height="80" as="geometry" />
        </mxCell>
        <mxCell id="V6yJi1-p0EJxkeEdnUwC-16" style="edgeStyle=orthogonalEdgeStyle;rounded=0;orthogonalLoop=1;jettySize=auto;html=1;entryX=0.5;entryY=0;entryDx=0;entryDy=0;endArrow=classic;endFill=1;startArrow=classic;startFill=1;" edge="1" parent="1" source="V6yJi1-p0EJxkeEdnUwC-6" target="V6yJi1-p0EJxkeEdnUwC-2">
          <mxGeometry relative="1" as="geometry" />
        </mxCell>
        <mxCell id="V6yJi1-p0EJxkeEdnUwC-6" value="Downstream C&lt;br&gt;" style="rounded=0;whiteSpace=wrap;html=1;fillColor=#dae8fc;strokeColor=#6c8ebf;" vertex="1" parent="1">
          <mxGeometry x="520" y="40" width="120" height="80" as="geometry" />
        </mxCell>
        <mxCell id="V6yJi1-p0EJxkeEdnUwC-15" style="edgeStyle=orthogonalEdgeStyle;rounded=0;orthogonalLoop=1;jettySize=auto;html=1;endArrow=classic;endFill=1;startArrow=classic;startFill=1;" edge="1" parent="1" source="V6yJi1-p0EJxkeEdnUwC-7" target="V6yJi1-p0EJxkeEdnUwC-3">
          <mxGeometry relative="1" as="geometry" />
        </mxCell>
        <mxCell id="V6yJi1-p0EJxkeEdnUwC-7" value="Downstream B" style="rounded=0;whiteSpace=wrap;html=1;fillColor=#dae8fc;strokeColor=#6c8ebf;" vertex="1" parent="1">
          <mxGeometry x="360" y="40" width="120" height="80" as="geometry" />
        </mxCell>
        <mxCell id="V6yJi1-p0EJxkeEdnUwC-14" style="edgeStyle=orthogonalEdgeStyle;rounded=0;orthogonalLoop=1;jettySize=auto;html=1;entryX=0.5;entryY=0;entryDx=0;entryDy=0;endArrow=classic;endFill=1;startArrow=classic;startFill=1;" edge="1" parent="1" source="V6yJi1-p0EJxkeEdnUwC-8" target="V6yJi1-p0EJxkeEdnUwC-1">
          <mxGeometry relative="1" as="geometry">
            <Array as="points">
              <mxPoint x="260" y="160" />
              <mxPoint x="180" y="160" />
            </Array>
          </mxGeometry>
        </mxCell>
        <mxCell id="V6yJi1-p0EJxkeEdnUwC-8" value="Downstream A2&lt;br&gt;" style="rounded=0;whiteSpace=wrap;html=1;fillColor=#dae8fc;strokeColor=#6c8ebf;" vertex="1" parent="1">
          <mxGeometry x="200" y="40" width="120" height="80" as="geometry" />
        </mxCell>
        <mxCell id="V6yJi1-p0EJxkeEdnUwC-13" style="edgeStyle=orthogonalEdgeStyle;rounded=0;orthogonalLoop=1;jettySize=auto;html=1;exitX=0.5;exitY=1;exitDx=0;exitDy=0;endArrow=classic;endFill=1;startArrow=classic;startFill=1;" edge="1" parent="1" source="V6yJi1-p0EJxkeEdnUwC-9" target="V6yJi1-p0EJxkeEdnUwC-1">
          <mxGeometry relative="1" as="geometry">
            <Array as="points">
              <mxPoint x="100" y="160" />
              <mxPoint x="180" y="160" />
            </Array>
          </mxGeometry>
        </mxCell>
        <mxCell id="V6yJi1-p0EJxkeEdnUwC-9" value="Downstream A1&lt;br&gt;" style="rounded=0;whiteSpace=wrap;html=1;fillColor=#dae8fc;strokeColor=#6c8ebf;" vertex="1" parent="1">
          <mxGeometry x="40" y="40" width="120" height="80" as="geometry" />
        </mxCell>
      </root>
    </mxGraphModel>
  </diagram>
</mxfile>
